{"title":"Turbo 2013 Brrip Xvid Ac3 BHRG","uid":9105262,"size":1480932756,"categoryP":"video","categoryS":"movies","magnet":"?xt=urn:btih:8428a80931a55f23534b4add7bc415cb2835c366&amp;dn=Turbo+2013+Brrip+Xvid+Ac3+BHRG&amp;tr=udp%3A%2F%2Ftracker.openbittorrent.com%3A80&amp;tr=udp%3A%2F%2Fopen.demonii.com%3A1337&amp;tr=udp%3A%2F%2Ftracker.coppersurfer.tk%3A6969&amp;tr=udp%3A%2F%2Fexodus.desync.com%3A6969","seeders":1,"leechers":0,"uploader":".BONE.","files":3,"time":1382849691,"description":"A freak accident might just help an everyday garden snail achieve his biggest dream: winning the Indy 500. \n\nFormat                                   : AVI\nFormat/Info                              : Audio Video Interleave\nFile size                                : 1.37 GiB\nDuration                                 : 1h 35mn\nOverall bit rate                         : 2 051 Kbps\nWriting library                          : VirtualDub build 30091/release\n\nVideo\nID                                       : 0\nFormat                                   : MPEG-4 Visual\nFormat profile                           : Advanced Simple@L5\nFormat settings, BVOP                    : 2\nFormat settings, QPel                    : No\nFormat settings, GMC                     : No warppoints\nFormat settings, Matrix                  : Default (H.263)\nMuxing mode                              : Packed bitstream\nCodec ID                                 : XVID\nCodec ID/Hint                            : XviD\nDuration                                 : 1h 35mn\nBit rate                                 : 1 593 Kbps\nWidth                                    : 720 pixels\nHeight                                   : 304 pixels\nDisplay aspect ratio                     : 2.35:1\nFrame rate                               : 23.976 fps\nColor space                              : YUV\nChroma subsampling                       : 4:2:0\nBit depth                                : 8 bits\nScan type                                : Progressive\nCompression mode                         : Lossy\nBits/(Pixel*Frame)                       : 0.304\nStream size                              : 1.06 GiB (78%)\nWriting library                          : XviD 1.2.1 (UTC 2008-12-04)\n\nAudio\nID                                       : 1\nFormat                                   : AC-3\nFormat/Info                              : Audio Coding 3\nMode extension                           : CM (complete main)\nFormat settings, Endianness              : Big\nCodec ID                                 : 2000\nDuration                                 : 1h 35mn\nBit rate mode                            : Constant\nBit rate                                 : 448 Kbps\nChannel count                            : 6 channels\nChannel positions                        : Front: L C R, Side: L R, LFE\nSampling rate                            : 48.0 KHz\nBit depth                                : 16 bits\nCompression mode                         : Lossy\nStream size                              : 307 MiB (22%)\n\n Source==PHD thx\n\n","torrent":{"xt":"urn:btih:8428a80931a55f23534b4add7bc415cb2835c366","amp;dn":"Turbo+2013+Brrip+Xvid+Ac3+BHRG","amp;tr":["udp%3A%2F%2Ftracker.openbittorrent.com%3A80","udp%3A%2F%2Fopen.demonii.com%3A1337","udp%3A%2F%2Ftracker.coppersurfer.tk%3A6969","udp%3A%2F%2Fexodus.desync.com%3A6969"],"infoHash":"8428a80931a55f23534b4add7bc415cb2835c366","infoHashBuffer":{"type":"Buffer","data":[132,40,168,9,49,165,95,35,83,75,74,221,123,196,21,203,40,53,195,102]},"announce":[],"urlList":[]}}